# xmcd
#
# Track frame offsets:
#	150
#	1868
#	17693
#	33625
#	47255
#	67695
#	89148
#	104866
#	117547
#	133927
#	156449
#	176393
#	194569
#
# Disc length: 2821 seconds
#
# Revision: 11
# Processed by: cddbd v1.5.2PL0 Copyright (c) Steve Scherf et al.
# Submitted via: EasyCDDAExtractor 15.3.0.1
#
DISCID=b30b030d
DTITLE=Mariah Carey - Merry Christmas II You
DYEAR=2010
DGENRE=R&B/Pop
TTITLE0=Santa Claus Is Coming To Town Intro
TTITLE1=Oh Santa!
TTITLE2=O Little Town Of Bethlehem, Little Drummer Boy Medley
TTITLE3=Christmas Time Is In The Air Again
TTITLE4=The First Noel, Born Is The King Interlude
TTITLE5=When Christmas Comes
TTITLE6=Here Comes Santa Claus (Right Down Santa Claus Lane), Housetop Celebra
TTITLE6=tion
TTITLE7=Charlie Brown Christmas
TTITLE8=O Come All Ye Faithful, Hallelujah Chorus (Featuring Patricia Carey)
TTITLE9=O Holy Night (Live From WPC In South Central Los Angeles)
TTITLE10=One Child
TTITLE11=All I Want For Christmas Is You - Extra Festive
TTITLE12=Auld Lang Syne -The New Year's Anthem
EXTD=YEAR: 2010
EXTT0=
EXTT1=
EXTT2=
EXTT3=
EXTT4=
EXTT5=
EXTT6=
EXTT7=
EXTT8=
EXTT9=
EXTT10=
EXTT11=
EXTT12=
PLAYORDER=
